<?xml version="1.0" encoding="utf-8"?>
<!-- Generator: Adobe Illustrator 25.0.1, SVG Export Plug-In . SVG Version: 6.00 Build 0)  -->
<svg version="1.1" id="Layer_1" xmlns="http://www.w3.org/2000/svg" xmlns:xlink="http://www.w3.org/1999/xlink" x="0px" y="0px"
	 viewBox="0 0 1598.6 968.7" style="enable-background:new 0 0 1598.6 968.7;" xml:space="preserve">
<style type="text/css">
	.st0{clip-path:url(#SVGID_2_);fill:url(#SVGID_3_);}
	.st1{clip-path:url(#SVGID_5_);fill:url(#SVGID_6_);}
	.st2{clip-path:url(#SVGID_8_);fill:url(#SVGID_9_);}
	.st3{clip-path:url(#SVGID_11_);fill:url(#SVGID_12_);}
	.st4{clip-path:url(#SVGID_14_);fill:url(#SVGID_15_);}
	.st5{clip-path:url(#SVGID_17_);fill:url(#SVGID_18_);}
	.st6{clip-path:url(#SVGID_20_);fill:url(#SVGID_21_);}
	.st7{clip-path:url(#SVGID_23_);fill:url(#SVGID_24_);}
	.st8{clip-path:url(#SVGID_26_);fill:url(#SVGID_27_);}
	.st9{clip-path:url(#SVGID_29_);fill:url(#SVGID_30_);}
	.st10{clip-path:url(#SVGID_32_);fill:url(#SVGID_33_);}
	.st11{clip-path:url(#SVGID_35_);fill:url(#SVGID_36_);}
	.st12{clip-path:url(#SVGID_38_);fill:url(#SVGID_39_);}
	.st13{clip-path:url(#SVGID_41_);fill:url(#SVGID_42_);}
</style>
<g>
	<defs>
		<path id="SVGID_1_" d="M18.8,453.8v-182c0-4.6,4-8.3,9-8.3h472.4c5,0,9,3.7,9,8.3v182c0,4.6-4,8.3-9,8.3H27.8
			C22.8,462.1,18.8,458.4,18.8,453.8 M27.8,254.5c-9.9,0-18,7.7-18,17.3v182c0,9.5,8.1,17.3,18,17.3h472.4c9.9,0,18-7.7,18-17.3
			v-182c0-9.5-8-17.3-18-17.3L27.8,254.5L27.8,254.5z"/>
	</defs>
	<clipPath id="SVGID_2_">
		<use xlink:href="#SVGID_1_"  style="overflow:visible;"/>
	</clipPath>
	
		<linearGradient id="SVGID_3_" gradientUnits="userSpaceOnUse" x1="-601.3083" y1="-282.9523" x2="-600.3083" y2="-282.9523" gradientTransform="matrix(-214.36 -371.2824 371.2824 -214.36 -23470.4141 -283361.0625)">
		<stop  offset="0" style="stop-color:#231F20"/>
		<stop  offset="1" style="stop-color:#FFD540"/>
	</linearGradient>
	<polygon class="st0" points="-83.9,308.7 391.1,34.4 612,416.9 136.9,691.2 	"/>
</g>
<g>
	<defs>
		<path id="SVGID_4_" d="M553.7,453.8v-182c0-4.6,4-8.3,9-8.3h472.4c5,0,9,3.7,9,8.3v182c0,4.6-4,8.3-9,8.3H562.7
			C557.7,462.1,553.7,458.4,553.7,453.8 M562.7,254.5c-9.9,0-18,7.7-18,17.3v182c0,9.5,8,17.3,18,17.3h472.4c9.9,0,18-7.7,18-17.3
			v-182c0-9.6-8-17.3-18-17.3L562.7,254.5L562.7,254.5z"/>
	</defs>
	<clipPath id="SVGID_5_">
		<use xlink:href="#SVGID_4_"  style="overflow:visible;"/>
	</clipPath>
	
		<linearGradient id="SVGID_6_" gradientUnits="userSpaceOnUse" x1="-601.3083" y1="-282.9531" x2="-600.3083" y2="-282.9531" gradientTransform="matrix(-214.36 -371.2824 371.2824 -214.36 -22935.3828 -283361.4062)">
		<stop  offset="0" style="stop-color:#231F20"/>
		<stop  offset="1" style="stop-color:#FFD540"/>
	</linearGradient>
	<polygon class="st1" points="450.9,308.7 926,34.4 1146.8,416.9 671.8,691.2 	"/>
</g>
<g>
	<defs>
		<path id="SVGID_7_" d="M1089.4,453.8v-182c0-4.6,4-8.3,9-8.3h472.4c4.9,0,9,3.7,9,8.3v182c0,4.6-4,8.3-9,8.3h-472.5
			C1093.3,462.1,1089.3,458.4,1089.4,453.8 M1098.3,254.5c-9.9,0-18,7.7-18,17.3v182c0,9.5,8,17.3,18,17.3h472.4
			c9.9,0,18-7.7,18-17.3v-182c0-9.6-8.1-17.3-18-17.3L1098.3,254.5L1098.3,254.5z"/>
	</defs>
	<clipPath id="SVGID_8_">
		<use xlink:href="#SVGID_7_"  style="overflow:visible;"/>
	</clipPath>
	
		<linearGradient id="SVGID_9_" gradientUnits="userSpaceOnUse" x1="-601.308" y1="-282.9578" x2="-600.308" y2="-282.9578" gradientTransform="matrix(-214.36 -372.9864 372.9864 -214.36 -21910.4609 -284384.6562)">
		<stop  offset="0" style="stop-color:#231F20"/>
		<stop  offset="1" style="stop-color:#FFD540"/>
	</linearGradient>
	<polygon class="st2" points="990.8,309.2 1468,34.9 1688.9,419.2 1211.6,693.5 	"/>
</g>
<g>
	<defs>
		<path id="SVGID_10_" d="M286.3,210.8v-182c0-4.6,4-8.3,9-8.3h472.4c5,0,9,3.7,9,8.3v182c0,4.6-4,8.3-9,8.3H295.3
			C290.3,219.1,286.3,215.3,286.3,210.8 M295.3,11.5c-9.9,0-18,7.7-18,17.3v182c0,9.5,8,17.3,18,17.3h472.4c9.9,0,18-7.7,18-17.3
			v-182c0-9.5-8-17.3-18-17.3C767.7,11.5,295.3,11.5,295.3,11.5z"/>
	</defs>
	<clipPath id="SVGID_11_">
		<use xlink:href="#SVGID_10_"  style="overflow:visible;"/>
	</clipPath>
	
		<linearGradient id="SVGID_12_" gradientUnits="userSpaceOnUse" x1="-601.3083" y1="-282.9542" x2="-600.3083" y2="-282.9542" gradientTransform="matrix(-214.36 -371.2824 371.2824 -214.36 -23202.3828 -283604.75)">
		<stop  offset="0" style="stop-color:#231F20"/>
		<stop  offset="1" style="stop-color:#FFD540"/>
	</linearGradient>
	<polygon class="st3" points="183.5,65.6 658.6,-208.6 879.4,173.9 404.4,448.2 	"/>
</g>
<g>
	<defs>
		<path id="SVGID_13_" d="M821.1,210.8v-182c0-4.6,4-8.3,9-8.3h472.4c5,0,9,3.7,9,8.3v182c0,4.6-4,8.3-9,8.3H830.1
			C825.2,219.1,821.1,215.3,821.1,210.8 M830.1,11.5c-9.9,0-18,7.7-18,17.3v182c0,9.5,8.1,17.3,18,17.3h472.4c9.9,0,18-7.7,18-17.3
			v-182c0-9.5-8.1-17.3-18-17.3C1302.5,11.5,830.1,11.5,830.1,11.5z"/>
	</defs>
	<clipPath id="SVGID_14_">
		<use xlink:href="#SVGID_13_"  style="overflow:visible;"/>
	</clipPath>
	
		<linearGradient id="SVGID_15_" gradientUnits="userSpaceOnUse" x1="-601.3083" y1="-282.9537" x2="-600.3083" y2="-282.9537" gradientTransform="matrix(-214.36 -371.2824 371.2824 -214.36 -22667.6641 -283604.5312)">
		<stop  offset="0" style="stop-color:#231F20"/>
		<stop  offset="1" style="stop-color:#FFD540"/>
	</linearGradient>
	<polygon class="st4" points="718.4,65.6 1193.4,-208.6 1414.3,173.9 939.2,448.2 	"/>
</g>
<g>
	<defs>
		<path id="SVGID_16_" d="M18.8,211.4V28.2c0-4.2,4.2-7.7,9.3-7.7h204.3c5.2,0,9.3,3.5,9.3,7.7v183.2c0,4.2-4.2,7.7-9.3,7.7H28.2
			C23,219.1,18.8,215.6,18.8,211.4 M28.2,11.5C18.1,11.5,9.9,19,9.9,28.2v183.2c0,9.2,8.2,16.7,18.3,16.7h204.3
			c10.1,0,18.3-7.5,18.3-16.7V28.2c0-9.2-8.2-16.7-18.3-16.7H28.2L28.2,11.5z"/>
	</defs>
	<clipPath id="SVGID_17_">
		<use xlink:href="#SVGID_16_"  style="overflow:visible;"/>
	</clipPath>
	
		<linearGradient id="SVGID_18_" gradientUnits="userSpaceOnUse" x1="-601.0447" y1="-282.4564" x2="-600.0447" y2="-282.4564" gradientTransform="matrix(-147.495 -255.4688 255.4688 -147.495 -16288.8398 -194962.6719)">
		<stop  offset="0" style="stop-color:#231F20"/>
		<stop  offset="1" style="stop-color:#FFD540"/>
	</linearGradient>
	<polygon class="st5" points="-83.9,65.7 190.6,-92.8 344.6,173.9 70.1,332.4 	"/>
</g>
<g>
	<defs>
		<path id="SVGID_19_" d="M1356.8,211.4V28.2c0-4.2,4.2-7.7,9.4-7.7h204.3c5.1,0,9.3,3.5,9.3,7.7v183.2c0,4.2-4.2,7.7-9.3,7.7
			h-204.3C1361,219.1,1356.8,215.6,1356.8,211.4 M1366.1,11.5c-10.1,0-18.3,7.5-18.3,16.7v183.2c0,9.2,8.2,16.7,18.3,16.7h204.3
			c10.1,0,18.3-7.5,18.3-16.7V28.2c0-9.2-8.2-16.7-18.3-16.7H1366.1L1366.1,11.5z"/>
	</defs>
	<clipPath id="SVGID_20_">
		<use xlink:href="#SVGID_19_"  style="overflow:visible;"/>
	</clipPath>
	
		<linearGradient id="SVGID_21_" gradientUnits="userSpaceOnUse" x1="-601.0447" y1="-282.4558" x2="-600.0447" y2="-282.4558" gradientTransform="matrix(-147.495 -255.4688 255.4688 -147.495 -14951.1211 -194962.6094)">
		<stop  offset="0" style="stop-color:#231F20"/>
		<stop  offset="1" style="stop-color:#FFD540"/>
	</linearGradient>
	<polygon class="st6" points="1254,65.7 1528.5,-92.8 1682.5,173.9 1408,332.4 	"/>
</g>
<g>
	<defs>
		<path id="SVGID_22_" d="M18.8,939.8V757.9c0-4.6,4-8.3,9-8.3h472.4c5,0,9,3.7,9,8.3v181.9c0,4.6-4,8.3-9,8.3H27.8
			C22.8,948.1,18.8,944.4,18.8,939.8 M27.8,740.5c-9.9,0-18,7.7-18,17.3v182c0,9.6,8.1,17.3,18,17.3h472.4c9.9,0,18-7.7,18-17.3
			V757.9c0-9.6-8-17.3-18-17.3L27.8,740.5z"/>
	</defs>
	<clipPath id="SVGID_23_">
		<use xlink:href="#SVGID_22_"  style="overflow:visible;"/>
	</clipPath>
	
		<linearGradient id="SVGID_24_" gradientUnits="userSpaceOnUse" x1="-601.3083" y1="-282.9518" x2="-600.3083" y2="-282.9518" gradientTransform="matrix(-214.36 -371.2824 371.2824 -214.36 -23470.6328 -282875)">
		<stop  offset="0" style="stop-color:#231F20"/>
		<stop  offset="1" style="stop-color:#FFD540"/>
	</linearGradient>
	<polygon class="st7" points="-83.9,794.7 391.1,520.4 612,902.9 136.9,1177.2 	"/>
</g>
<g>
	<defs>
		<path id="SVGID_25_" d="M553.7,939.8V757.9c0-4.6,4-8.3,9-8.3h472.4c5,0,9,3.7,9,8.3v181.9c0,4.6-4,8.3-9,8.3H562.7
			C557.7,948.1,553.7,944.4,553.7,939.8 M562.7,740.5c-9.9,0-18,7.7-18,17.3v181.9c0,9.6,8,17.3,18,17.3h472.4c9.9,0,18-7.7,18-17.3
			V757.8c0-9.6-8-17.3-18-17.3H562.7z"/>
	</defs>
	<clipPath id="SVGID_26_">
		<use xlink:href="#SVGID_25_"  style="overflow:visible;"/>
	</clipPath>
	
		<linearGradient id="SVGID_27_" gradientUnits="userSpaceOnUse" x1="-601.3083" y1="-282.9527" x2="-600.3083" y2="-282.9527" gradientTransform="matrix(-214.36 -371.2824 371.2824 -214.36 -22935.4453 -282875.25)">
		<stop  offset="0" style="stop-color:#231F20"/>
		<stop  offset="1" style="stop-color:#FFD540"/>
	</linearGradient>
	<polygon class="st8" points="450.9,794.7 926,520.4 1146.9,902.9 671.8,1177.2 	"/>
</g>
<g>
	<defs>
		<path id="SVGID_28_" d="M1089.4,939.8V757.9c0-4.6,4-8.3,9-8.3h472.4c4.9,0,9,3.7,9,8.3v181.9c0,4.6-4,8.3-9,8.3h-472.5
			C1093.3,948.1,1089.3,944.4,1089.4,939.8 M1098.3,740.5c-9.9,0-18,7.7-18,17.3v181.9c0,9.6,8,17.3,18,17.3h472.4
			c9.9,0,18-7.7,18-17.3V757.8c0-9.6-8.1-17.3-18-17.3H1098.3z"/>
	</defs>
	<clipPath id="SVGID_29_">
		<use xlink:href="#SVGID_28_"  style="overflow:visible;"/>
	</clipPath>
	
		<linearGradient id="SVGID_30_" gradientUnits="userSpaceOnUse" x1="-601.3083" y1="-282.9525" x2="-600.3083" y2="-282.9525" gradientTransform="matrix(-214.36 -371.2824 371.2824 -214.36 -22399.9141 -282875.2812)">
		<stop  offset="0" style="stop-color:#231F20"/>
		<stop  offset="1" style="stop-color:#FFD540"/>
	</linearGradient>
	<polygon class="st9" points="986.6,794.7 1461.7,520.4 1682.5,902.9 1207.5,1177.2 	"/>
</g>
<g>
	<defs>
		<path id="SVGID_31_" d="M286.3,696.8v-182c0-4.6,4-8.3,9-8.3h472.4c5,0,9,3.7,9,8.3v182c0,4.6-4,8.3-9,8.3H295.3
			C290.3,705.1,286.3,701.4,286.3,696.8 M295.3,497.5c-9.9,0-18,7.7-18,17.3v182c0,9.6,8,17.3,18,17.3h472.4c9.9,0,18-7.7,18-17.3
			v-182c0-9.5-8-17.3-18-17.3H295.3z"/>
	</defs>
	<clipPath id="SVGID_32_">
		<use xlink:href="#SVGID_31_"  style="overflow:visible;"/>
	</clipPath>
	
		<linearGradient id="SVGID_33_" gradientUnits="userSpaceOnUse" x1="-601.3083" y1="-282.9538" x2="-600.3083" y2="-282.9538" gradientTransform="matrix(-214.36 -371.2824 371.2824 -214.36 -23202.4766 -283118.5312)">
		<stop  offset="0" style="stop-color:#231F20"/>
		<stop  offset="1" style="stop-color:#FFD540"/>
	</linearGradient>
	<polygon class="st10" points="183.5,551.7 658.6,277.4 879.4,659.9 404.4,934.2 	"/>
</g>
<g>
	<defs>
		<path id="SVGID_34_" d="M821.1,696.8v-182c0-4.6,4-8.3,9-8.3h472.4c5,0,9,3.7,9,8.3v182c0,4.6-4,8.3-9,8.3H830.1
			C825.2,705.1,821.1,701.4,821.1,696.8 M830.1,497.5c-9.9,0-18,7.7-18,17.3v182c0,9.6,8.1,17.3,18,17.3h472.4c9.9,0,18-7.7,18-17.3
			v-182c0-9.5-8.1-17.3-18-17.3H830.1z"/>
	</defs>
	<clipPath id="SVGID_35_">
		<use xlink:href="#SVGID_34_"  style="overflow:visible;"/>
	</clipPath>
	
		<linearGradient id="SVGID_36_" gradientUnits="userSpaceOnUse" x1="-601.3083" y1="-282.9533" x2="-600.3083" y2="-282.9533" gradientTransform="matrix(-214.36 -371.2824 371.2824 -214.36 -22667.8203 -283118.4375)">
		<stop  offset="0" style="stop-color:#231F20"/>
		<stop  offset="1" style="stop-color:#FFD540"/>
	</linearGradient>
	<polygon class="st11" points="718.4,551.7 1193.4,277.4 1414.3,659.9 939.2,934.2 	"/>
</g>
<g>
	<defs>
		<path id="SVGID_37_" d="M18.8,697.4V514.2c0-4.2,4.2-7.7,9.3-7.7h204.3c5.2,0,9.3,3.4,9.3,7.7v183.2c0,4.2-4.2,7.7-9.3,7.7H28.2
			C23,705.1,18.8,701.6,18.8,697.4 M28.2,497.5c-10.1,0-18.3,7.5-18.3,16.7v183.2c0,9.2,8.2,16.7,18.3,16.7h204.3
			c10.1,0,18.3-7.5,18.3-16.7V514.2c0-9.2-8.2-16.7-18.3-16.7H28.2z"/>
	</defs>
	<clipPath id="SVGID_38_">
		<use xlink:href="#SVGID_37_"  style="overflow:visible;"/>
	</clipPath>
	
		<linearGradient id="SVGID_39_" gradientUnits="userSpaceOnUse" x1="-601.0447" y1="-282.4572" x2="-600.0447" y2="-282.4572" gradientTransform="matrix(-147.495 -255.4688 255.4688 -147.495 -16288.6211 -194476.7344)">
		<stop  offset="0" style="stop-color:#231F20"/>
		<stop  offset="1" style="stop-color:#FFD540"/>
	</linearGradient>
	<polygon class="st12" points="-83.9,551.7 190.6,393.2 344.6,659.9 70.1,818.4 	"/>
</g>
<g>
	<defs>
		<path id="SVGID_40_" d="M1356.8,697.4V514.2c0-4.2,4.2-7.7,9.4-7.7h204.3c5.1,0,9.3,3.4,9.3,7.7v183.2c0,4.2-4.2,7.7-9.3,7.7
			h-204.3C1361,705.1,1356.8,701.6,1356.8,697.4 M1366.1,497.5c-10.1,0-18.3,7.5-18.3,16.7v183.2c0,9.2,8.2,16.7,18.3,16.7h204.3
			c10.1,0,18.3-7.5,18.3-16.7V514.2c0-9.2-8.2-16.7-18.3-16.7H1366.1z"/>
	</defs>
	<clipPath id="SVGID_41_">
		<use xlink:href="#SVGID_40_"  style="overflow:visible;"/>
	</clipPath>
	
		<linearGradient id="SVGID_42_" gradientUnits="userSpaceOnUse" x1="-601.0444" y1="-282.4638" x2="-600.0444" y2="-282.4638" gradientTransform="matrix(-147.495 -256.6413 256.6413 -147.495 -14611.9971 -195179.3906)">
		<stop  offset="0" style="stop-color:#231F20"/>
		<stop  offset="1" style="stop-color:#FFD540"/>
	</linearGradient>
	<polygon class="st13" points="1259.2,553.4 1534.9,395 1688.9,662.9 1413.2,821.4 	"/>
</g>
</svg>
